<svg xmlns="http://www.w3.org/2000/svg" viewBox="0 0 24 24"><path fill="none" d="M.28 6.22h6.35v6.35H.28z"/><g stroke="#000" stroke-linecap="round" stroke-linejoin="round" stroke-width=".1" aria-label="Lugar de Luz" font-family="FreeSans" font-size="3.08" font-style="italic" font-weight="600" letter-spacing="-.08" style="line-height:1.25;-inkscape-font-specification:C059" text-anchor="middle" word-spacing=".26"><path d="M67.74 167.94h-.46l-.48 2.24h1.53l.09-.39h-1.08zM70.01 170.18l.36-1.66h-.44l-.2.98c-.06.24-.22.4-.42.4-.15 0-.23-.08-.23-.23 0-.04 0-.08.02-.15l.21-1h-.43l-.24 1.15a.81.81 0 00-.02.17c0 .25.18.4.45.4.23 0 .4-.07.56-.27l-.05.2zM70.87 170.85c.5 0 .84-.23.92-.62l.37-1.71h-.4l-.06.25c-.09-.19-.21-.28-.4-.28-.56 0-.91.63-.91 1.17 0 .34.22.59.53.59.2 0 .32-.06.51-.24l-.05.22c-.04.2-.22.34-.44.34-.15 0-.27-.07-.27-.15v-.04h-.44a.6.6 0 000 .1c0 .15.12.37.64.37zm.44-2.02c.17 0 .28.15.28.38 0 .37-.23.7-.5.7-.17 0-.26-.14-.26-.35 0-.38.23-.73.48-.73zM73.12 168.49c-.48 0-.73.18-.81.58h.4c.05-.17.15-.24.34-.24.16 0 .23.04.23.14 0 .19-.24.2-.39.22l-.18.03c-.53.1-.62.5-.62.63 0 .24.19.4.46.4.18 0 .33-.07.51-.24v.09l.02.08h.47v-.05c-.04-.06-.06-.1-.06-.14l.01-.07.2-.92.01-.14c0-.15-.1-.37-.59-.37zm.05 1.02c-.06.25-.2.4-.41.4-.15 0-.23-.06-.23-.16 0-.14.11-.25.31-.28l.2-.03c.1-.02.1-.02.15-.05zM74.11 168.52l-.35 1.66h.43l.18-.88c.06-.26.21-.38.47-.38a.7.7 0 01.13.01l.09-.44h-.05c-.2 0-.4.13-.54.35l.07-.32zM76.95 170.18h.43l.48-2.24h-.43l-.17.8c-.07-.17-.2-.25-.4-.25-.55 0-.91.6-.91 1.12 0 .39.2.64.53.64.2 0 .37-.08.5-.24zm-.07-1.35c.16 0 .27.14.27.36 0 .38-.23.71-.5.71-.16 0-.26-.13-.26-.36 0-.37.23-.7.49-.7zM78.67 168.49c-.83 0-.97.87-.97 1.12 0 .38.26.64.65.64.37 0 .68-.2.85-.54h-.43c-.06.12-.2.2-.34.2-.18 0-.3-.12-.3-.29l.02-.14h1.11c.04-.13.06-.26.06-.38 0-.36-.26-.61-.65-.61zm-.06.34c.25 0 .27.17.27.37h-.68c.05-.19.17-.37.41-.37zM81.34 167.94h-.46l-.48 2.24h1.54l.08-.39h-1.07zM83.62 170.18l.35-1.66h-.43l-.2.98c-.06.24-.22.4-.42.4-.15 0-.23-.08-.23-.23l.01-.15.22-1h-.43l-.25 1.15a.81.81 0 00-.02.17c0 .25.18.4.45.4.23 0 .4-.07.56-.27l-.04.2zM85.52 168.52h-1.3l-.07.35h.76l-1.02.96-.08.35h1.38l.07-.35h-.84l1.02-.96z" baseline-shift="sub" style="-inkscape-font-specification:'FreeSans Semi-Bold Italic';text-align:center" transform="matrix(.90105 0 0 1.10981 -56.62 -172.12)"/></g><path d="M12 5.1a1.32 1.32 0 100 2.66 1.32 1.32 0 000-2.65zM9.35 6.7h.53c.15 0 .27-.12.27-.27a.27.27 0 00-.27-.26h-.53a.27.27 0 00-.26.26c0 .15.12.27.26.27zm4.77 0h.53c.14 0 .26-.12.26-.27a.27.27 0 00-.26-.26h-.53a.27.27 0 00-.27.26c0 .15.12.27.27.27zm-2.38-2.91v.53c0 .14.11.26.26.26.15 0 .26-.12.26-.26v-.53a.27.27 0 00-.26-.27.27.27 0 00-.26.27zm-1.33.68a.26.26 0 10-.37.37l.28.28a.26.26 0 10.37-.37zm3.27 3.27a.26.26 0 10-.37.37l.28.29a.26.26 0 10.37-.38zm.28-2.9a.26.26 0 10-.37-.37l-.28.28a.26.26 0 10.37.37zM10.7 8.11a.26.26 0 10-.37-.37l-.28.28a.26.26 0 10.37.38z"/><path fill="none" d="M8.83 7.4h6.34v6.35H8.83z"/><path d="M11.47 12.42V11.1h1.06v1.32c0 .15.12.27.26.27h.8c.14 0 .26-.12.26-.27v-1.85h.45c.12 0 .18-.15.09-.23l-2.21-1.99a.27.27 0 00-.36 0l-2.2 2a.13.13 0 00.08.22h.45v1.85c0 .15.12.27.26.27h.8c.14 0 .26-.12.26-.27z"/></svg>