<?xml version="1.0" encoding="UTF-8" standalone="no"?>
<svg
   xmlns:dc="http://purl.org/dc/elements/1.1/"
   xmlns:cc="http://creativecommons.org/ns#"
   xmlns:rdf="http://www.w3.org/1999/02/22-rdf-syntax-ns#"
   xmlns:svg="http://www.w3.org/2000/svg"
   xmlns="http://www.w3.org/2000/svg"
   xmlns:sodipodi="http://sodipodi.sourceforge.net/DTD/sodipodi-0.dtd"
   xmlns:inkscape="http://www.inkscape.org/namespaces/inkscape"
   width="24mm"
   height="24mm"
   viewBox="0 0 24 24.000001"
   version="1.1"
   id="svg8"
   inkscape:version="1.0.1 (3bc2e813f5, 2020-09-07)"
   sodipodi:docname="lugar-de-luz.svg"
   inkscape:export-filename="/home/jadson/Ãrea de Trabalho/lugar-de-luz/public/lugar-de-luz.png"
   inkscape:export-xdpi="158.75"
   inkscape:export-ydpi="158.75">
  <defs
     id="defs2" />
  <sodipodi:namedview
     id="base"
     pagecolor="#ffffff"
     bordercolor="#666666"
     borderopacity="1.0"
     inkscape:pageopacity="0.0"
     inkscape:pageshadow="2"
     inkscape:zoom="4"
     inkscape:cx="48.094537"
     inkscape:cy="46.522811"
     inkscape:document-units="mm"
     inkscape:current-layer="layer1"
     inkscape:document-rotation="0"
     showgrid="false"
     fit-margin-top="0"
     fit-margin-left="0"
     fit-margin-right="0"
     fit-margin-bottom="0"
     inkscape:window-width="1366"
     inkscape:window-height="703"
     inkscape:window-x="0"
     inkscape:window-y="0"
     inkscape:window-maximized="1" />
  <metadata
     id="metadata5">
    <rdf:RDF>
      <cc:Work
         rdf:about="">
        <dc:format>image/svg+xml</dc:format>
        <dc:type
           rdf:resource="http://purl.org/dc/dcmitype/StillImage" />
        <dc:title></dc:title>
      </cc:Work>
    </rdf:RDF>
  </metadata>
  <g
     inkscape:label="Layer 1"
     inkscape:groupmode="layer"
     id="layer1"
     transform="translate(-56.722745,-178.34173)">
    <rect
       style="fill:#ffffff;stroke-width:0.16764;stroke-linecap:round;stroke-linejoin:round"
       id="rect35"
       width="24"
       height="24"
       x="56.722744"
       y="178.34174" />
    <g
       id="g31"
       transform="matrix(1.4230364,0,0,1.4230364,-29.072218,-78.39659)">
      <text
         xml:space="preserve"
         style="font-size:4.13335px;line-height:1.25;font-family:C059;-inkscape-font-specification:C059;letter-spacing:-0.0846667px;word-spacing:0.261937px;stroke-width:0.1;stroke-miterlimit:4;stroke-dasharray:none"
         x="76.031082"
         y="174.95932"
         id="text867"
         transform="scale(0.90105196,1.1098139)"><tspan
           sodipodi:role="line"
           id="tspan865"
           x="75.988747"
           y="174.95932"
           style="font-style:italic;font-variant:normal;font-weight:600;font-stretch:normal;font-size:3.07573px;font-family:FreeSans;-inkscape-font-specification:'FreeSans Semi-Bold Italic';text-align:center;baseline-shift:sub;text-anchor:middle;stroke:#000000;stroke-width:0.1;stroke-linecap:round;stroke-linejoin:round;stroke-miterlimit:4;stroke-dasharray:none;stroke-opacity:1;paint-order:normal"
           dx="0">Lugar de Luz</tspan></text>
      <g
         id="g877"
         transform="translate(8.825,2.1935976)">
        <path
           d="m 59.897744,181.25707 c -0.73025,0 -1.322916,0.59267 -1.322916,1.32292 0,0.73025 0.592666,1.32292 1.322916,1.32292 0.73025,0 1.322917,-0.59267 1.322917,-1.32292 0,-0.73025 -0.592667,-1.32292 -1.322917,-1.32292 z m -2.645833,1.5875 h 0.529167 c 0.145521,0 0.264583,-0.11906 0.264583,-0.26458 0,-0.14552 -0.119062,-0.26458 -0.264583,-0.26458 h -0.529167 c -0.145521,0 -0.264583,0.11906 -0.264583,0.26458 0,0.14552 0.119062,0.26458 0.264583,0.26458 z m 4.7625,0 h 0.529167 c 0.145521,0 0.264583,-0.11906 0.264583,-0.26458 0,-0.14552 -0.119062,-0.26458 -0.264583,-0.26458 h -0.529167 c -0.145521,0 -0.264583,0.11906 -0.264583,0.26458 0,0.14552 0.119062,0.26458 0.264583,0.26458 z m -2.38125,-2.91041 v 0.52916 c 0,0.14552 0.119063,0.26459 0.264583,0.26459 0.145521,0 0.264584,-0.11907 0.264584,-0.26459 v -0.52916 c 0,-0.14553 -0.119063,-0.26459 -0.264584,-0.26459 -0.14552,0 -0.264583,0.11906 -0.264583,0.26459 z m -1.325562,0.68262 c -0.103188,-0.10319 -0.272521,-0.10319 -0.373063,0 -0.103187,0.10319 -0.103187,0.27252 0,0.37306 l 0.280458,0.28046 c 0.103188,0.10319 0.272521,0.10319 0.373063,0 0.100542,-0.10319 0.103187,-0.27252 0,-0.37306 z m 3.272895,3.2729 c -0.103187,-0.10319 -0.27252,-0.10319 -0.373062,0 -0.103188,0.10318 -0.103188,0.27252 0,0.37306 l 0.280458,0.28046 c 0.103188,0.10318 0.272521,0.10318 0.373063,0 0.103187,-0.10319 0.103187,-0.27252 0,-0.37307 z m 0.280459,-2.89984 c 0.103187,-0.10318 0.103187,-0.27252 0,-0.37306 -0.103188,-0.10319 -0.272521,-0.10319 -0.373063,0 l -0.280458,0.28046 c -0.103188,0.10319 -0.103188,0.27252 0,0.37306 0.103187,0.10054 0.272521,0.10319 0.373062,0 z m -3.272896,3.2729 c 0.103187,-0.10319 0.103187,-0.27252 0,-0.37306 -0.103188,-0.10319 -0.272521,-0.10319 -0.373063,0 l -0.280458,0.28045 c -0.103187,0.10319 -0.103187,0.27253 0,0.37307 0.103188,0.10054 0.272521,0.10318 0.373063,0 z"
           id="path851"
           style="opacity:0.998;fill:#000000;stroke-width:0.264583"
           sodipodi:nodetypes="sssssssssssssssssssssssssssccsscssccsccssccsscssccsscs" />
        <g
           id="g847"
           transform="matrix(0.26458333,0,0,0.26458333,56.722745,183.54524)"
           style="opacity:1">
          <path
             d="M 0,0 H 24 V 24 H 0 Z"
             fill="none"
             id="path833" />
          <path
             d="m 10,19 v -5 h 4 v 5 c 0,0.55 0.45,1 1,1 h 3 c 0.55,0 1,-0.45 1,-1 v -7 h 1.7 c 0.46,0 0.68,-0.57 0.33,-0.87 L 12.67,3.6 C 12.29,3.26 11.71,3.26 11.33,3.6 L 2.97,11.13 C 2.63,11.43 2.84,12 3.3,12 H 5 v 7 c 0,0.55 0.45,1 1,1 h 3 c 0.55,0 1,-0.45 1,-1 z"
             id="path835" />
        </g>
      </g>
    </g>
  </g>
</svg>
